HIERARCHY
ROOT Hips
{
  OFFSET 41.7899 108.186 -351.665
  CHANNELS 6 Xposition Yposition Zposition Zrotation Xrotation Yrotation
  JOINT ToSpine
  {
    OFFSET -2.69724 7.43032 -0.144315
    CHANNELS 3 Zrotation Xrotation Yrotation
    JOINT Spine
    {
      OFFSET -0.0310711 10.7595 1.96963
      CHANNELS 3 Zrotation Xrotation Yrotation
      JOINT Spine1
      {
        OFFSET 19.9056 3.91189 0.764692
        CHANNELS 3 Zrotation Xrotation Yrotation
        JOINT Neck
        {
          OFFSET 25.9749 7.03908 -0.130764
          CHANNELS 3 Zrotation Xrotation Yrotation
          JOINT Head
          {
            OFFSET 9.52751 0.295786 -0.907742
            CHANNELS 3 Zrotation Xrotation Yrotation
            End Site
            {
              OFFSET 16.4037 0.713936 2.7358
            }
          }
        }
        JOINT LeftShoulder
        {
          OFFSET 17.7449 4.33886 11.7777
          CHANNELS 3 Zrotation Xrotation Yrotation
          JOINT LeftArm
          {
            OFFSET 0.911315 1.27913 9.80584
            CHANNELS 3 Zrotation Xrotation Yrotation
            JOINT LeftForeArm
            {
              OFFSET 28.6126 1.18197 -3.53199
              CHANNELS 3 Zrotation Xrotation Yrotation
              JOINT LeftHand
              {
                OFFSET 27.5088 0.0218783 0.327423
                CHANNELS 3 Zrotation Xrotation Yrotation
                End Site
                {
                  OFFSET 18.6038 -0.000155887 0.382096
                }
              }
            }
          }
        }
        JOINT RightShoulder
        {
          OFFSET 17.1009 2.89543 -12.2328
          CHANNELS 3 Zrotation Xrotation Yrotation
          JOINT RightArm
          {
            OFFSET 1.4228 0.178766 -10.211
            CHANNELS 3 Zrotation Xrotation Yrotation
            JOINT RightForeArm
            {
              OFFSET 28.733 1.87905 2.64907
              CHANNELS 3 Zrotation Xrotation Yrotation
              JOINT RightHand
              {
                OFFSET 27.4588 0.290562 -0.101845
                CHANNELS 3 Zrotation Xrotation Yrotation
                End Site
                {
                  OFFSET 17.8396 -0.255518 -0.000602873
                }
              }
            }
          }
        }
      }
    }
  }
  JOINT LeftUpLeg
  {
    OFFSET -5.61296 -2.22332 -10.2353
    CHANNELS 3 Zrotation Xrotation Yrotation
    JOINT LeftLeg
    {
      OFFSET 2.56703 -44.7417 -7.93097
      CHANNELS 3 Zrotation Xrotation Yrotation
      JOINT LeftFoot
      {
        OFFSET 3.16933 -46.5642 -3.96578
        CHANNELS 3 Zrotation Xrotation Yrotation
        JOINT LeftToeBase
        {
          OFFSET 0.346054 -6.02161 12.8035
          CHANNELS 3 Zrotation Xrotation Yrotation
          End Site
          {
            OFFSET 0.134235 -1.35082 5.13018
          }
        }
      }
    }
  }
  JOINT RightUpLeg
  {
    OFFSET -5.7928 -1.72406 10.6446
    CHANNELS 3 Zrotation Xrotation Yrotation
    JOINT RightLeg
    {
      OFFSET -2.57161 -44.7178 -7.85259
      CHANNELS 3 Zrotation Xrotation Yrotation
      JOINT RightFoot
      {
        OFFSET -3.10148 -46.5936 -4.03391
        CHANNELS 3 Zrotation Xrotation Yrotation
        JOINT RightToeBase
        {
          OFFSET -0.0828122 -6.13587 12.8035
          CHANNELS 3 Zrotation Xrotation Yrotation
          End Site
          {
            OFFSET -0.131328 -1.35082 5.13018
          }
        }
      }
    }
  }
}
MOTION
Frames:	13
Frame Time:	0.0333333
41.7899 108.18 -351.665 4.19235 -71.5051 -84.0161 -70.1915 0 88.8779 121.205 76.6009 -28.9926 -7.79615 28.5632 3.00452 -148.756 23.4606 170.592 -137.943 60.9412 176.456 0.506363 -11.5732 -43.8043 -96.8781 38.4641 -90.3687 -14.6622 50.9865 6.61585 4.73473 0.112215 4.04453 4.27947 -21.0203 33.2631 -26.9049 -14.4904 138.647 -17.5163 20.8762 10.6051 11.8817 -1.22962 -12.7945 -58.3804 -3.26348 94.2506 2.4517 14.5857 -7.94947 8.34138 7.88755 -1.11841 -10.0508 -25.5455 3.47208 -58.9624 7.26668 82.3489 -0.301361 16.7565 -6.01647 -6.0501 -1.42241 0.930668 -0.276715 -1.89284 -0.620487 
41.7803 108.18 -351.67 3.99199 -71.5118 -84.2442 -70.1915 0 88.8779 121.254 76.6201 -29.0807 -7.82785 28.5711 3.0583 -148.821 23.51 170.742 -138.9 61.1369 176.959 0.511191 -11.5553 -43.8592 -96.2305 38.4805 -90.6517 -14.387 50.9808 5.98386 3.899 0.0950465 4.03903 4.27067 -21.0035 33.2343 -26.1664 -13.7772 138.724 -17.4372 20.7938 11.1221 12.0233 -1.16716 -12.021 -58.3708 -3.25551 94.2778 2.43496 14.6179 -7.8836 8.33179 7.72604 -1.1166 -9.89111 -25.1453 3.47195 -58.8552 7.1809 82.277 -0.211599 16.9708 -5.90877 -6.09883 -1.51803 0.937749 -0.272512 -1.8834 -0.640503 
41.7796 108.18 -351.681 4.24976 -71.5115 -84.0001 -70.1915 0 88.8779 121.228 76.5409 -29.1178 -7.93552 28.4752 3.13314 -149.232 23.729 171.356 -141.528 61.7335 178.513 0.510151 -11.5566 -43.9022 -95.7994 38.6595 -90.7883 -13.7572 51.5008 4.93035 2.12483 0.0276037 2.56706 4.23726 -21.0026 33.0555 -27.2081 -14.9633 138.629 -17.0294 18.5138 10.4965 11.8792 -1.1144 -11.6402 -58.4105 -3.30665 94.2487 2.47481 14.538 -7.94099 8.18058 7.6547 -1.08852 -9.80347 -24.929 3.48116 -58.8453 7.10651 82.2181 -0.146781 17.0052 -5.92289 -6.13116 -1.53365 0.941545 -0.278653 -1.91545 -0.639185 
41.7745 108.18 -351.689 4.33469 -71.522 -83.9249 -70.1915 0 88.8779 121.25 76.4627 -29.1916 -8.07631 28.3898 3.20504 -149.274 23.7871 171.314 -141.93 61.8077 178.356 0.502868 -11.5793 -43.9077 -96.0904 38.9937 -90.6398 -13.4672 52.3628 4.72077 1.7885 0.00732591 1.60434 4.21633 -20.8453 33.1145 -29.3344 -17.1823 137.934 -16.605 15.375 9.26871 11.5201 -1.05405 -11.3851 -58.4431 -3.34232 94.2172 2.51377 14.493 -7.94024 8.09295 7.60813 -1.07234 -9.74369 -24.7854 3.49757 -58.8629 7.09964 82.2177 -0.150205 16.9941 -5.92056 -6.14107 -1.51673 0.942318 -0.289158 -1.96931 -0.635428 
41.7695 108.18 -351.7 4.4961 -71.5239 -83.7594 -70.1915 0 88.8779 121.242 76.3668 -29.2256 -8.25488 28.2902 3.26627 -149.28 23.834 171.275 -142.068 61.8202 177.953 0.482809 -11.6444 -43.8716 -95.8194 39.2861 -90.6609 -12.7483 52.5198 3.77181 1.85669 -0.00274387 1.08033 4.19811 -20.6152 33.2701 -32.3726 -20.1779 136.742 -16.1972 11.3542 7.64659 11.0515 -0.993 -11.2174 -58.4246 -3.35315 94.2023 2.52697 14.5248 -7.97777 8.07421 7.5737 -1.06894 -9.73973 -24.7819 3.51395 -58.8631 7.10057 82.2147 -0.153222 17.0024 -5.94428 -6.1498 -1.50898 0.943129 -0.300185 -2.0313 -0.639914 
41.7685 108.18 -351.706 4.70252 -71.5313 -83.5544 -70.1915 0 88.8779 121.227 76.2641 -29.2725 -8.4718 28.1728 3.36342 -149.319 23.8547 171.294 -142.255 61.7921 177.456 0.453255 -11.7384 -43.8593 -95.6102 39.5848 -90.7436 -12.3105 52.4155 3.1578 2.02067 -0.00363629 1.26479 4.17416 -20.3512 33.4361 -36.187 -23.6726 135.012 -15.8555 6.5036 5.7785 10.5418 -0.929211 -11.0463 -58.4833 -3.43584 94.1143 2.61618 14.4205 -7.97847 8.04526 7.63911 -1.06343 -9.75243 -24.8526 3.57721 -58.8829 7.08189 82.1966 -0.141941 16.9961 -5.96021 -6.16418 -1.49773 0.944495 -0.312146 -2.09671 -0.641979 
41.7625 108.18 -351.709 4.80047 -71.5449 -83.4657 -70.1915 0 88.8779 121.257 76.1709 -29.3503 -8.68847 28.1132 3.34784 -149.308 23.8599 170.751 -141.759 61.6196 176.044 0.403817 -11.9053 -43.6735 -94.7333 39.8758 -91.1772 -11.8622 51.9003 2.17603 2.17336 -0.00106009 1.23866 4.16789 -19.9876 33.8228 -40.7294 -27.3232 132.527 -15.6591 1.39133 3.79511 9.94572 -0.858099 -10.8642 -58.4781 -3.40754 94.1576 2.55315 14.4542 -8.03379 8.12878 7.66917 -1.07888 -9.79838 -24.9524 3.5716 -58.8805 7.06726 82.1816 -0.141058 17.0408 -5.94744 -6.17649 -1.50898 0.946033 -0.32415 -2.16394 -0.646565 
41.7511 108.176 -351.711 4.78292 -71.5396 -83.4805 -70.1915 0 88.8779 121.247 76.1221 -29.3843 -8.93618 28.0815 3.35946 -149.265 23.8596 170.155 -141.197 61.4196 174.539 0.336823 -12.1288 -43.5081 -93.973 40.1849 -91.298 -10.7856 51.5416 0.516201 2.09306 0.00210215 1.37216 4.16546 -19.6355 34.2317 -45.7728 -30.8206 129.428 -15.5898 -3.86228 1.81984 9.32723 -0.782509 -10.6244 -58.4723 -3.42924 94.1195 2.59204 14.4459 -8.00582 8.17589 7.7238 -1.07609 -9.85176 -25.1473 3.7212 -58.8661 7.08105 82.1859 -0.143542 17.0604 -5.92902 -6.19255 -1.5059 0.947726 -0.333945 -2.22102 -0.653846 
41.7524 108.17 -351.705 4.9553 -71.5389 -83.3001 -70.1915 0 88.8779 121.176 76.0472 -29.343 -9.18725 28.0274 3.34309 -149.26 23.8287 169.405 -140.408 61.119 172.708 0.258351 -12.3924 -43.3253 -93.251 40.4611 -91.3914 -9.85442 50.5338 -0.860615 1.81984 0.0188491 2.22029 4.16909 -19.2443 34.7404 -51.1076 -33.8651 125.746 -15.6259 -8.73426 -0.0679315 8.61941 -0.703776 -10.4139 -58.461 -3.45907 94.0814 2.62065 14.4715 -8.02839 8.24488 7.78154 -1.08977 -9.9138 -25.2984 3.70779 -58.8653 7.06369 82.1572 -0.124576 17.0887 -5.94382 -6.2041 -1.52294 0.949278 -0.34245 -2.26614 -0.653232 
41.7468 108.165 -351.697 4.94744 -71.544 -83.32 -70.1915 0 88.8779 121.124 75.9909 -29.326 -9.44122 28.0103 3.28602 -149.193 23.8407 168.721 -139.902 60.9262 171.22 0.17182 -12.6899 -43.0811 -92.5705 40.88 -91.3745 -8.58993 49.9102 -2.50587 1.38009 0.0192438 2.3748 4.17036 -18.82 35.2997 -56.3489 -36.283 121.765 -15.6958 -12.9451 -1.74384 7.87436 -0.618543 -10.1097 -58.4759 -3.49724 94.0403 2.65123 14.4563 -7.98825 8.30728 7.85263 -1.09703 -9.98856 -25.4773 3.68488 -58.8508 7.04805 82.141 -0.121167 17.1406 -5.91548 -6.21152 -1.54878 0.95053 -0.349681 -2.29984 -0.645357 
41.7328 108.16 -351.687 4.7333 -71.5196 -83.531 -70.1915 0 88.8779 120.992 75.9906 -29.2156 -9.71811 28.0179 3.27463 -149.139 23.8791 168.226 -139.833 60.8594 170.209 0.0759855 -13.016 -42.8998 -90.5339 41.2399 -92.0141 -6.90619 48.0971 -4.78094 0.916484 0.022333 2.90153 4.16752 -18.4573 35.7739 -60.9771 -38.0622 117.946 -15.7408 -16.5148 -3.12992 7.17347 -0.546169 -9.89478 -58.4321 -3.48116 94.0356 2.65825 14.492 -7.92623 8.36554 7.89036 -1.11704 -10.0441 -25.6082 3.66381 -58.8099 7.07688 82.1594 -0.128494 17.1645 -5.87955 -6.21918 -1.55974 0.95155 -0.352857 -2.30953 -0.63381 
41.7295 108.16 -351.673 4.72021 -71.4876 -83.5289 -70.1915 0 88.8779 120.748 75.9712 -28.957 -9.96346 28.0218 3.17782 -149.105 23.9061 167.583 -139.675 60.7486 168.986 -0.0345859 -13.4002 -42.6546 -89.2538 41.5682 -92.3538 -5.9727 47.0532 -5.98713 0.741523 0.0199559 2.83984 4.17689 -18.062 36.3899 -65.0837 -39.2175 114.214 -15.6096 -19.245 -4.01238 6.43912 -0.473094 -9.66676 -58.3862 -3.48043 94.0169 2.67825 14.5255 -7.9172 8.4096 7.91871 -1.13123 -10.093 -25.7258 3.65109 -58.7836 7.08887 82.1588 -0.118539 17.1609 -5.90321 -6.21921 -1.57481 0.951812 -0.353286 -2.29373 -0.60524 
41.722 108.161 -351.663 4.63136 -71.4708 -83.6189 -70.1915 0 88.8779 120.542 75.9434 -28.7462 -10.2029 28.0265 3.07409 -149.046 23.9543 166.993 -139.574 60.6982 167.996 -0.144686 -13.7899 -42.396 -88.8339 41.7634 -92.2377 -5.69204 47.083 -6.34386 0.920455 0.0131871 2.05952 4.17643 -17.6622 36.9769 -67.9579 -39.8822 111.148 -14.8134 -22.0513 -3.14789 5.99833 -0.428047 -9.47437 -58.3628 -3.49366 93.9909 2.70616 14.5441 -7.87227 8.42294 7.92815 -1.13375 -10.1174 -25.7678 3.61807 -58.7553 7.09573 82.1622 -0.121076 17.178 -5.91511 -6.20953 -1.60328 0.951257 -0.353543 -2.259 -0.548502 
